<svg width="24" height="24" viewBox="0 0 24 24" xmlns="http://www.w3.org/2000/svg" xmlns:xlink="http://www.w3.org/1999/xlink">
    <defs>
        <path d="M11 17h2v-6h-2v6zm1-15C6.48 2 2 6.48 2 12s4.48 10 10 10 10-4.48 10-10S17.52 2 12 2zm0 18c-4.41 0-8-3.59-8-8s3.59-8 8-8 8 3.59 8 8-3.59 8-8 8zM11 9h2V7h-2v2zm0-2h2v2h-2V7zm0 4h2v6h-2v-6zm1-9C6.48 2 2 6.48 2 12s4.48 10 10 10 10-4.48 10-10S17.52 2 12 2zm0 18c-4.41 0-8-3.59-8-8s3.59-8 8-8 8 3.59 8 8-3.59 8-8 8z" id="4bzbkqggaa"/>
    </defs>
    <g fill="none" fill-rule="evenodd">
        <mask id="1xihy0i8xb" fill="#fff">
            <use xlink:href="#4bzbkqggaa"/>
        </mask>
        <g mask="url(#1xihy0i8xb)" fill="#ECEDEF">
            <path d="M0 0h24v24H0z"/>
        </g>
    </g>
</svg>
