<svg width="32" height="32" viewBox="0 0 32 32" xmlns="http://www.w3.org/2000/svg">
    <g fill-rule="nonzero" fill="none">
        <path d="M31.648 16.174c0-1.068-.092-2.083-.249-3.07H16.648v6.1h8.446a7.552 7.552 0 0 1-3.133 4.842v4.058H27c2.95-2.827 4.648-6.993 4.648-11.93z" fill="#4285F4"/>
        <path d="M16.364 32c4.346 0 7.98-1.446 10.636-3.896l-5.177-4.016c-1.449.963-3.286 1.553-5.459 1.553-4.198 0-7.752-2.825-9.026-6.641H2v4.137C4.642 28.385 10.074 32 16.364 32z" fill="#34A853"/>
        <path d="M7.494 19.585a10.144 10.144 0 0 1-.505-3.192c0-1.115.186-2.189.505-3.192V8.893H2.207a17.202 17.202 0 0 0-1.713 7.5c0 2.705.624 5.242 1.713 7.5l5.287-4.308z" fill="#FBBC05"/>
        <path d="M16.477 6.36c2.362 0 4.471.816 6.14 2.41l4.564-4.58C24.418 1.594 20.801 0 16.477 0 10.217 0 4.81 3.615 2.18 8.863L7.494 13c1.268-3.816 4.805-6.64 8.983-6.64z" fill="#EA4335"/>
    </g>
</svg>
