<svg width="136" height="40" viewBox="0 0 136 40" xmlns="http://www.w3.org/2000/svg">
    <g fill="#FFF" fill-rule="nonzero">
        <path d="M56.674 15.279a6.713 6.713 0 0 0-2.267-1.438 7.712 7.712 0 0 0-2.833-.507 7.257 7.257 0 0 0-2.898.56 7.49 7.49 0 0 0-2.298 1.533 6.822 6.822 0 0 0-1.53 2.294 7.492 7.492 0 0 0-.545 2.875c-.008.94.17 1.874.524 2.748a6.77 6.77 0 0 0 3.721 3.784 7.56 7.56 0 0 0 2.972.56 7.298 7.298 0 0 0 4.438-1.32 7.08 7.08 0 0 0 2.544-3.669H56.76a4.663 4.663 0 0 1-1.882 2.611 5.965 5.965 0 0 1-7.388-.613 5.284 5.284 0 0 1-1.187-1.691 6 6 0 0 1-.492-2.114h12.916v-.55a7.325 7.325 0 0 0-.545-2.843 6.507 6.507 0 0 0-1.508-2.22m-10.778 4.228c.11-.675.338-1.326.674-1.924a5.543 5.543 0 0 1 1.262-1.5 5.917 5.917 0 0 1 1.7-.994 5.639 5.639 0 0 1 2.042-.35 5.47 5.47 0 0 1 3.785 1.312 5.262 5.262 0 0 1 1.71 3.467l-11.173-.011zM71.842 25.122c.185-.47.279-.969.278-1.471a3.2 3.2 0 0 0-.333-1.514 3.573 3.573 0 0 0-.889-1.05 6.306 6.306 0 0 0-1.244-.8c-.466-.23-.944-.43-1.422-.62-.477-.188-.833-.325-1.221-.504a6.39 6.39 0 0 1-1.044-.578 2.787 2.787 0 0 1-.744-.725 1.8 1.8 0 0 1-.323-.977 2.115 2.115 0 0 1 .645-1.524c.51-.463 1.204-.7 1.91-.652a2.632 2.632 0 0 1 1.966.652c.415.415.662.954.7 1.524h1.621a3.234 3.234 0 0 0-1.11-2.554c-.874-.7-2-1.054-3.144-.988a5.267 5.267 0 0 0-1.799.284 3.72 3.72 0 0 0-1.31.788 3.28 3.28 0 0 0-1.111 2.438 3.01 3.01 0 0 0 .344 1.524c.229.403.538.76.91 1.051.389.3.814.555 1.267.757l1.422.61c.422.167.833.336 1.221.514.362.158.704.352 1.022.578.291.2.54.45.733.736.196.318.293.683.278 1.05.036.72-.26 1.418-.813 1.913a2.703 2.703 0 0 1-2.064.663 3.246 3.246 0 0 1-2.221-.715 2.667 2.667 0 0 1-.789-2.102h-1.721c-.077 1.177.389 2.327 1.277 3.153a5.089 5.089 0 0 0 3.432 1.103 5.475 5.475 0 0 0 2.044-.336 4.352 4.352 0 0 0 1.41-.904c.365-.373.645-.813.822-1.292M82.18 27.692h.244v-1.51a12.02 12.02 0 0 1-1.953-.13c-.922-.082-1.655-.758-1.755-1.618a9.57 9.57 0 0 1-.151-1.922V14.91h3.86V13.5h-3.86V9.23l-1.767.966V13.5h-2.616v1.444h2.616v7.602c-.018.845.064 1.69.244 2.52.137.575.434 1.107.86 1.541a3.492 3.492 0 0 0 1.662.815c.86.168 1.738.244 2.616.228M97.885 15.279a6.676 6.676 0 0 0-2.258-1.438 7.777 7.777 0 0 0-2.846-.507 7.256 7.256 0 0 0-2.89.56 7.378 7.378 0 0 0-2.31 1.533 6.8 6.8 0 0 0-1.52 2.294 7.488 7.488 0 0 0-.546 2.875 7.32 7.32 0 0 0 .514 2.748 7.125 7.125 0 0 0 1.455 2.251 7.002 7.002 0 0 0 2.28 1.533 7.506 7.506 0 0 0 2.963.56 7.34 7.34 0 0 0 4.451-1.32 7.006 7.006 0 0 0 2.536-3.669h-1.733a4.6 4.6 0 0 1-1.883 2.611 5.819 5.819 0 0 1-3.37.962 5.687 5.687 0 0 1-4.024-1.575 5.284 5.284 0 0 1-1.188-1.691 5.996 5.996 0 0 1-.492-2.114H99.94v-.55a7.32 7.32 0 0 0-.546-2.843 6.507 6.507 0 0 0-1.508-2.22M87.11 19.507c.099-.678.328-1.33.674-1.924a5.512 5.512 0 0 1 1.252-1.5 5.837 5.837 0 0 1 1.712-.994 5.592 5.592 0 0 1 2.033-.36 5.39 5.39 0 0 1 3.788 1.31 5.261 5.261 0 0 1 1.722 3.468H87.11zM106.39 9.23l-1.763.97v3.308H102v1.448h2.627v7.619a11.55 11.55 0 0 0 .233 2.525c.123.575.41 1.109.83 1.545.458.413 1.033.696 1.657.817.864.167 1.745.244 2.627.228h.245v-1.469c-.653.01-1.305-.034-1.95-.13a2.264 2.264 0 0 1-1.167-.523 2.125 2.125 0 0 1-.584-1.088c-.11-.637-.16-1.282-.152-1.927v-7.619h3.876v-1.426h-3.852V9.231zM115.394 13.333h1.886v14.36h-1.886zM115.485 8.119c-.243.221-.38.538-.374.869-.006.333.118.656.346.897.227.246.548.38.88.369.35.023.693-.112.936-.369.234-.238.363-.562.356-.897.01-.328-.12-.644-.356-.87a1.173 1.173 0 0 0-.936-.358 1.146 1.146 0 0 0-.852.359zM134.377 21.682a5.237 5.237 0 0 1-.651 1.846 5.493 5.493 0 0 1-1.217 1.436 5.279 5.279 0 0 1-1.645.939 5.805 5.805 0 0 1-1.986.338 5.746 5.746 0 0 1-4.11-1.689 5.713 5.713 0 0 1-1.185-1.815 6.076 6.076 0 0 1 0-4.475 5.713 5.713 0 0 1 1.185-1.815 5.447 5.447 0 0 1 1.794-1.224 5.392 5.392 0 0 1 2.231-.465 5.54 5.54 0 0 1 3.705 1.256 5.26 5.26 0 0 1 1.815 3.272h1.623a7.182 7.182 0 0 0-.8-2.417 6.663 6.663 0 0 0-1.517-1.868 6.927 6.927 0 0 0-2.135-1.235 8.147 8.147 0 0 0-2.68-.432 7.217 7.217 0 0 0-5.136 2.11 7.024 7.024 0 0 0-1.537 2.27 7.486 7.486 0 0 0 0 5.656c.369.838.902 1.594 1.57 2.227a7.234 7.234 0 0 0 2.295 1.52 7.468 7.468 0 0 0 7.612-1.119 6.634 6.634 0 0 0 1.57-1.89 6.816 6.816 0 0 0 .822-2.426h-1.623zM36.885 26.026c-1.468 7.009-8.62 11.986-15.515 12.666-7.554.644-14.749-3.325-18.205-10.043A19.193 19.193 0 0 1 6.024 7.602c5.145-5.803 14.405-8.47 21.422-4.464a13.459 13.459 0 0 1 6.726 8.403c.662 2.868.135 6.618-1.973 8.816a4.485 4.485 0 0 1-1.625 1.116c-.74.28-.415 1.462.325 1.183 3.172-1.172 4.484-4.798 4.72-7.9A12.95 12.95 0 0 0 31.38 4.521 16.53 16.53 0 0 0 19.734.002c-4.22.112-8.3 1.532-11.67 4.062C1.417 9.154-1.479 17.74.733 25.792c2.328 7.902 9.329 13.542 17.577 14.162 7.488.546 15.694-3.772 18.844-10.725.419-.923.738-1.889.953-2.879.157-.77-1.031-1.116-1.188-.324"/>
        <path d="M14.307 15.907c1.675-.925 3.52-.925 5.248-1.601 1.621-.75 2.982-2.02 3.892-3.632 1.183-1.78 1.571-4.023 1.06-6.134-.223-.767-1.347-.44-1.124.327.46 1.906.07 3.932-1.06 5.492a8.785 8.785 0 0 1-1.951 2.108 5.602 5.602 0 0 1-2.29.993 13.336 13.336 0 0 0-5.048 1.85 9.556 9.556 0 0 0-3.138 3.98 11.886 11.886 0 0 0-.202 6.935c.16.779 1.283.44 1.124-.338-.413-2.03-.7-4.41.244-6.326.702-1.544 1.835-2.82 3.245-3.654M20.2 28.398a19.4 19.4 0 0 1 4.345-1.389c1.196-.31 2.788-.608 3.206-1.805a1.541 1.541 0 0 0-.359-1.506c-.12-.139-.31-.3-.335-.48-.024-.182.252-.492.276-.76a.736.736 0 0 0-.144-.512s-.12-.16-.191-.235c-.072-.075.131-.31.143-.331a.895.895 0 0 0-.06-.609 1.662 1.662 0 0 0-.526-.662c.24-.132.465-.286.67-.46 1.077-.865 0-1.794-.814-2.392a6.984 6.984 0 0 1-1.986-2.596c-.36-.684-1.496-.086-1.137.598a7.902 7.902 0 0 0 1.843 2.478c.363.348.764.663 1.196.94 0 0 .084 0 0 .096-.083.097-.179.15-.215.171-.267.151-.502.343-.694.567a.972.972 0 0 0-.096 1.068c.132.235.395.384.55.598a1.443 1.443 0 0 0-.167.203.707.707 0 0 0-.084.555c.067.175.173.335.312.47a.41.41 0 0 0 0 .054.99.99 0 0 0-.156.438c-.07.45.072.908.395 1.26.227.278.479.502.227.834a1.83 1.83 0 0 1-.957.49c-1.592.492-3.255.749-4.786 1.368-2.394.94-4.99 3.13-3.925 5.694.095.16.276.265.478.278.264 0 .575 0 .61-.385.03-.384.03-.77 0-1.154 0-1.292 1.197-2.286 2.394-2.916"/>
    </g>
</svg>
