<svg width="24" height="24" viewBox="0 0 24 24" xmlns="http://www.w3.org/2000/svg" xmlns:xlink="http://www.w3.org/1999/xlink">
    <defs>
        <path d="M12 5.5c-5.52 0-10 2.24-10 5 0 2.24 2.94 4.13 7 4.77v3.23l4-4-4-4v2.73c-3.15-.56-5-1.9-5-2.73 0-1.06 3.04-3 8-3s8 1.94 8 3c0 .73-1.46 1.89-4 2.53v2.05c3.53-.77 6-2.53 6-4.58 0-2.76-4.48-5-10-5z" id="tldeteh3ja"/>
    </defs>
    <g fill="none" fill-rule="evenodd">
        <mask id="3nkjaads7b" fill="#fff">
            <use xlink:href="#tldeteh3ja"/>
        </mask>
        <g mask="url(#3nkjaads7b)" fill="#ECEDEF">
            <path d="M0 0h24v24H0z"/>
        </g>
    </g>
</svg>
